<?xml version="1.0" standalone="no"?>
<!DOCTYPE svg PUBLIC "-//W3C//DTD SVG 20010904//EN"
 "http://www.w3.org/TR/2001/REC-SVG-20010904/DTD/svg10.dtd">
<svg version="1.0" xmlns="http://www.w3.org/2000/svg"
 width="256.000000pt" height="144.000000pt" viewBox="0 0 256.000000 144.000000"
 preserveAspectRatio="xMidYMid meet">

<g transform="translate(0.000000,144.000000) scale(0.100000,-0.100000)"
fill="#EF233C" stroke="">
<path d="M0 720 l0 -720 1280 0 1280 0 0 720 0 720 -1280 0 -1280 0 0 -720z
m1510 335 l0 -65 -135 0 -135 0 0 -335 0 -335 -75 0 -75 0 0 335 0 335 -130 0
-130 0 0 65 0 65 340 0 340 0 0 -65z m90 -435 l0 -300 -75 0 -75 0 0 200 0
200 -40 -6 -40 -7 0 70 0 69 58 12 c31 7 80 23 107 36 28 14 53 25 58 25 4 1
7 -134 7 -299z m89 -227 c-3 -19 2 -33 12 -33 5 0 7 5 3 12 -4 7 -3 8 4 4 15
-9 5 -33 -13 -33 -8 0 -15 9 -15 19 0 13 -4 17 -12 12 -9 -5 -9 -2 1 9 14 18
22 22 20 10z m39 -5 c17 -17 15 -43 -5 -59 -15 -11 -16 -11 -5 1 17 20 15 47
-5 59 -10 6 -13 11 -7 11 5 0 15 -5 22 -12z"/>
</g>
</svg>
